<svg width="555" height="279" viewBox="0 0 555 279" fill="none" xmlns="http://www.w3.org/2000/svg">
<path opacity="0.5" d="M0.5 10C0.5 4.7533 4.7533 0.5 10 0.5H545C550.247 0.5 554.5 4.7533 554.5 10V269C554.5 274.247 550.247 278.5 545 278.5H9.99999C4.75329 278.5 0.5 274.247 0.5 269V10Z" fill="white" stroke="#2A94E2"/>
<path opacity="0.5" d="M4 17.2084L0 272V11L4 17.2084Z" fill="url(#paint0_linear_8765_96)"/>
<path opacity="0.5" d="M10 25.2061L6 279V19L10 25.2061Z" fill="url(#paint1_linear_8765_96)"/>
<path opacity="0.5" d="M16 32.2112L12 279V26L16 32.2112Z" fill="url(#paint2_linear_8765_96)"/>
<defs>
<linearGradient id="paint0_linear_8765_96" x1="1.98427" y1="267.943" x2="1.98427" y2="4.68913" gradientUnits="userSpaceOnUse">
<stop stop-color="white" stop-opacity="0"/>
<stop offset="0.1146" stop-color="#0670EB" stop-opacity="0.1146"/>
<stop offset="0.2866" stop-color="#0670EB" stop-opacity="0.2866"/>
<stop offset="0.4541" stop-color="#0670EB" stop-opacity="0.4541"/>
<stop offset="0.613" stop-color="#0670EB" stop-opacity="0.613"/>
<stop offset="0.7611" stop-color="#0670EB" stop-opacity="0.7611"/>
<stop offset="0.8943" stop-color="#0670EB" stop-opacity="0.8943"/>
<stop offset="1" stop-color="#0670EB"/>
</linearGradient>
<linearGradient id="paint1_linear_8765_96" x1="7.98427" y1="275.846" x2="7.98427" y2="12.6915" gradientUnits="userSpaceOnUse">
<stop stop-color="white" stop-opacity="0"/>
<stop offset="0.1146" stop-color="#0670EB" stop-opacity="0.1146"/>
<stop offset="0.2866" stop-color="#0670EB" stop-opacity="0.2866"/>
<stop offset="0.4541" stop-color="#0670EB" stop-opacity="0.4541"/>
<stop offset="0.613" stop-color="#0670EB" stop-opacity="0.613"/>
<stop offset="0.7611" stop-color="#0670EB" stop-opacity="0.7611"/>
<stop offset="0.8943" stop-color="#0670EB" stop-opacity="0.8943"/>
<stop offset="1" stop-color="#0670EB"/>
</linearGradient>
<linearGradient id="paint2_linear_8765_96" x1="13.9843" y1="283.059" x2="13.9843" y2="19.6863" gradientUnits="userSpaceOnUse">
<stop stop-color="white" stop-opacity="0"/>
<stop offset="0.1146" stop-color="#0670EB" stop-opacity="0.1146"/>
<stop offset="0.2866" stop-color="#0670EB" stop-opacity="0.2866"/>
<stop offset="0.4541" stop-color="#0670EB" stop-opacity="0.4541"/>
<stop offset="0.613" stop-color="#0670EB" stop-opacity="0.613"/>
<stop offset="0.7611" stop-color="#0670EB" stop-opacity="0.7611"/>
<stop offset="0.8943" stop-color="#0670EB" stop-opacity="0.8943"/>
<stop offset="1" stop-color="#0670EB"/>
</linearGradient>
</defs>
</svg>
