<svg width="135" height="138" viewBox="0 0 135 138" fill="none" xmlns="http://www.w3.org/2000/svg">
<path opacity="0.5" d="M14 50H32V69H14V50Z" fill="#2A94E2"/>
<path opacity="0.5" d="M49 50H68V69H49V50Z" fill="#2A94E2"/>
<path opacity="0.5" d="M105 75H122V92H105V75Z" fill="#2A94E2"/>
<path d="M81.7544 2V137H52.6828V119.202C52.6827 118.355 51.9133 117.584 51.0677 117.584H31.6867C30.6169 117.62 30.0964 118.592 30.0716 119.202V137H1V39.3146L81.7544 2ZM92.0077 30.2135H134V137H92.0077V30.2135ZM104.928 43.1573H121.079V59.337H104.928V43.1573ZM13.9207 49.6292H33.3017V69.045H13.9207V49.6292ZM49.4526 49.6292H68.8337V69.045H49.4526V49.6292ZM104.928 75.5169H121.079V91.6967H104.928V75.5169ZM13.9207 85.2248H33.3017V104.64H13.9207V85.2248ZM49.4526 85.2248H68.8337V104.64H49.4526V85.2248ZM104.928 107.876H121.079V124.056H104.928V107.876Z" stroke="black" stroke-width="1.8"/>
</svg>
