<svg width="369" height="110" viewBox="0 0 369 110" fill="none" xmlns="http://www.w3.org/2000/svg">
<path d="M173.768 41V30.872H180.184V41H181.368V29.8H172.584V41H173.768ZM185.45 39.768C186.17 40.712 187.161 41.192 188.442 41.192C189.578 41.192 190.522 40.792 191.242 40.008C191.962 39.224 192.33 38.264 192.33 37.128C192.33 36.008 191.962 35.048 191.242 34.264C190.522 33.48 189.578 33.08 188.442 33.08C187.161 33.08 186.17 33.56 185.45 34.504V33.272H184.298V44.2H185.45V39.768ZM185.45 35.864C185.914 34.856 187.002 34.12 188.17 34.12C189.018 34.12 189.738 34.408 190.298 34.984C190.858 35.56 191.146 36.28 191.146 37.128C191.146 37.976 190.858 38.696 190.298 39.288C189.738 39.864 189.018 40.152 188.17 40.152C187.002 40.152 185.898 39.432 185.45 38.408V35.864ZM195.077 34.28C194.293 35.064 193.909 36.024 193.909 37.144C193.909 38.264 194.293 39.224 195.077 40.008C195.861 40.792 196.853 41.192 198.085 41.192C199.317 41.192 200.309 40.792 201.093 40.008C201.877 39.224 202.261 38.264 202.261 37.144C202.261 36.024 201.877 35.064 201.093 34.28C200.309 33.48 199.317 33.08 198.085 33.08C196.853 33.08 195.861 33.48 195.077 34.28ZM201.077 37.144C201.077 37.992 200.789 38.712 200.229 39.288C199.669 39.864 198.949 40.152 198.085 40.152C197.221 40.152 196.501 39.864 195.941 39.288C195.381 38.712 195.093 37.992 195.093 37.144C195.093 36.28 195.381 35.56 195.941 34.984C196.501 34.408 197.221 34.12 198.085 34.12C198.949 34.12 199.669 34.408 200.229 34.984C200.789 35.56 201.077 36.28 201.077 37.144ZM204.237 43.288V41H211.501V43.288H212.621V39.992H211.181V33.272H205.437L205.421 34.36C205.405 36.968 204.973 38.856 204.109 39.992H203.133V43.288H204.237ZM205.389 39.992C206.141 38.792 206.509 37.048 206.509 34.744V34.28H210.029V39.992H205.389ZM217.124 40.152C215.924 40.152 215.012 39.608 215.012 38.568C215.012 37.608 215.892 37.016 217.3 37.016C218.18 37.016 219.028 37.272 219.812 37.784V38.856C219.252 39.56 218.228 40.152 217.124 40.152ZM216.804 41.192C218.1 41.192 219.14 40.744 219.924 39.832C220.052 40.664 220.628 41.064 221.38 41.064C221.732 41.064 221.988 41 222.148 40.888V39.992C222.02 40.056 221.876 40.088 221.7 40.088C221.252 40.088 220.964 39.72 220.964 39.128V35.944C220.964 34.072 219.572 33.08 217.508 33.08C216.404 33.08 215.492 33.32 214.74 33.784V34.904C215.524 34.376 216.356 34.12 217.268 34.12C218.964 34.12 219.812 34.76 219.812 36.056V36.824C218.964 36.328 218.036 36.072 217.028 36.072C216.116 36.072 215.364 36.296 214.756 36.76C214.164 37.224 213.86 37.848 213.86 38.632C213.86 39.432 214.148 40.056 214.708 40.52C215.284 40.968 215.988 41.192 216.804 41.192ZM223.488 33.272L227.12 36.856L223.12 41H224.624L228.208 37.256V41H229.36V37.256L232.944 41H234.464L230.464 36.856L234.08 33.272H232.624L229.36 36.568V33.272H228.208V36.568L224.944 33.272H223.488ZM238.593 40.152C237.393 40.152 236.481 39.608 236.481 38.568C236.481 37.608 237.361 37.016 238.769 37.016C239.649 37.016 240.497 37.272 241.281 37.784V38.856C240.721 39.56 239.697 40.152 238.593 40.152ZM238.273 41.192C239.569 41.192 240.609 40.744 241.393 39.832C241.521 40.664 242.097 41.064 242.849 41.064C243.201 41.064 243.457 41 243.617 40.888V39.992C243.489 40.056 243.345 40.088 243.169 40.088C242.721 40.088 242.433 39.72 242.433 39.128V35.944C242.433 34.072 241.041 33.08 238.977 33.08C237.873 33.08 236.961 33.32 236.209 33.784V34.904C236.993 34.376 237.825 34.12 238.737 34.12C240.433 34.12 241.281 34.76 241.281 36.056V36.824C240.433 36.328 239.505 36.072 238.497 36.072C237.585 36.072 236.833 36.296 236.225 36.76C235.633 37.224 235.329 37.848 235.329 38.632C235.329 39.432 235.617 40.056 236.177 40.52C236.753 40.968 237.457 41.192 238.273 41.192ZM250.856 41V37.56H255.608V41H256.76V33.272H255.608V36.52H250.856V33.272H249.704V41H250.856ZM263.181 41.192C264.349 41.192 265.245 40.952 265.885 40.456V39.432C265.133 39.912 264.301 40.152 263.405 40.152C261.549 40.152 260.237 39.08 260.109 37.416H266.461V37.096C266.461 35.352 265.437 33.08 262.845 33.08C261.693 33.08 260.749 33.464 260.013 34.248C259.293 35.016 258.925 35.976 258.925 37.144C258.925 38.328 259.325 39.304 260.141 40.056C260.957 40.808 261.981 41.192 263.181 41.192ZM260.125 36.472C260.173 35.832 260.445 35.288 260.909 34.824C261.389 34.36 262.013 34.12 262.797 34.12C263.613 34.12 264.221 34.36 264.621 34.856C265.037 35.336 265.261 35.88 265.293 36.472H260.125ZM268.722 43.288V41H275.986V43.288H277.106V39.992H275.666V33.272H269.922L269.906 34.36C269.89 36.968 269.458 38.856 268.594 39.992H267.618V43.288H268.722ZM269.874 39.992C270.626 38.792 270.994 37.048 270.994 34.744V34.28H274.514V39.992H269.874ZM283.337 41C284.985 41 285.913 40.2 285.913 38.92C285.913 37.88 285.417 37.224 284.441 36.936C285.081 36.632 285.401 36.072 285.401 35.24C285.401 34.072 284.553 33.272 283.065 33.272H279.001V41H283.337ZM280.153 37.512H283.097C284.137 37.512 284.745 37.976 284.745 38.76C284.745 39.544 284.137 39.992 283.097 39.992H280.153V37.512ZM280.153 34.28H282.745C283.705 34.28 284.265 34.664 284.265 35.416C284.265 36.136 283.705 36.552 282.745 36.552H280.153V34.28ZM289.307 41L294.251 34.984V41H295.403V33.272H294.331L289.387 39.304V33.272H288.235V41H289.307ZM297.598 33.272L301.23 36.856L297.23 41H298.734L302.318 37.256V41H303.47V37.256L307.054 41H308.574L304.574 36.856L308.19 33.272H306.734L303.47 36.568V33.272H302.318V36.568L299.054 33.272H297.598ZM311.479 41L316.423 34.984V41H317.575V33.272H316.503L311.559 39.304V33.272H310.407V41H311.479ZM321.418 41V34.856L324.282 38.2H324.73L327.61 34.856V41H328.73V33.272H327.61L324.506 36.856L321.418 33.272H320.298V41H321.418ZM332.062 34.28C331.278 35.064 330.894 36.024 330.894 37.144C330.894 38.264 331.278 39.224 332.062 40.008C332.846 40.792 333.838 41.192 335.07 41.192C336.302 41.192 337.294 40.792 338.078 40.008C338.862 39.224 339.246 38.264 339.246 37.144C339.246 36.024 338.862 35.064 338.078 34.28C337.294 33.48 336.302 33.08 335.07 33.08C333.838 33.08 332.846 33.48 332.062 34.28ZM338.062 37.144C338.062 37.992 337.774 38.712 337.214 39.288C336.654 39.864 335.934 40.152 335.07 40.152C334.206 40.152 333.486 39.864 332.926 39.288C332.366 38.712 332.078 37.992 332.078 37.144C332.078 36.28 332.366 35.56 332.926 34.984C333.486 34.408 334.206 34.12 335.07 34.12C335.934 34.12 336.654 34.408 337.214 34.984C337.774 35.56 338.062 36.28 338.062 37.144ZM344.943 41.192C345.887 41.192 346.719 40.968 347.439 40.536V39.48C346.751 39.928 345.983 40.152 345.119 40.152C344.239 40.152 343.487 39.864 342.895 39.304C342.303 38.728 342.015 38.008 342.015 37.144C342.015 36.264 342.303 35.544 342.895 34.984C343.487 34.408 344.239 34.12 345.119 34.12C345.871 34.12 346.591 34.312 347.295 34.712V33.64C346.639 33.272 345.855 33.08 344.959 33.08C343.791 33.08 342.799 33.464 342.015 34.248C341.231 35.016 340.831 35.976 340.831 37.128C340.831 38.296 341.215 39.256 341.999 40.04C342.783 40.808 343.775 41.192 344.943 41.192ZM352.681 41V34.28H355.481V33.272H348.729V34.28H351.529V41H352.681ZM358.323 41L363.267 34.984V41H364.419V33.272H363.347L358.403 39.304V33.272H357.251V41H358.323ZM176.696 68C178.344 68 179.272 67.2 179.272 65.92C179.272 64.88 178.776 64.224 177.8 63.936C178.44 63.632 178.76 63.072 178.76 62.24C178.76 61.072 177.912 60.272 176.424 60.272H172.36V68H176.696ZM173.512 64.512H176.456C177.496 64.512 178.104 64.976 178.104 65.76C178.104 66.544 177.496 66.992 176.456 66.992H173.512V64.512ZM173.512 61.28H176.104C177.064 61.28 177.624 61.664 177.624 62.416C177.624 63.136 177.064 63.552 176.104 63.552H173.512V61.28ZM187.205 68V58.592L190.901 63.488H191.621L195.285 58.592V68H196.453V56.8H195.301L191.253 62.224L187.205 56.8H186.037V68H187.205ZM199.984 61.28C199.2 62.064 198.816 63.024 198.816 64.144C198.816 65.264 199.2 66.224 199.984 67.008C200.768 67.792 201.76 68.192 202.992 68.192C204.224 68.192 205.216 67.792 206 67.008C206.784 66.224 207.168 65.264 207.168 64.144C207.168 63.024 206.784 62.064 206 61.28C205.216 60.48 204.224 60.08 202.992 60.08C201.76 60.08 200.768 60.48 199.984 61.28ZM205.984 64.144C205.984 64.992 205.696 65.712 205.136 66.288C204.576 66.864 203.856 67.152 202.992 67.152C202.128 67.152 201.408 66.864 200.848 66.288C200.288 65.712 200 64.992 200 64.144C200 63.28 200.288 62.56 200.848 61.984C201.408 61.408 202.128 61.12 202.992 61.12C203.856 61.12 204.576 61.408 205.136 61.984C205.696 62.56 205.984 63.28 205.984 64.144ZM212.865 68.192C213.809 68.192 214.641 67.968 215.361 67.536V66.48C214.673 66.928 213.905 67.152 213.041 67.152C212.161 67.152 211.409 66.864 210.817 66.304C210.225 65.728 209.937 65.008 209.937 64.144C209.937 63.264 210.225 62.544 210.817 61.984C211.409 61.408 212.161 61.12 213.041 61.12C213.793 61.12 214.513 61.312 215.217 61.712V60.64C214.561 60.272 213.777 60.08 212.881 60.08C211.713 60.08 210.721 60.464 209.937 61.248C209.153 62.016 208.753 62.976 208.753 64.128C208.753 65.296 209.137 66.256 209.921 67.04C210.705 67.808 211.697 68.192 212.865 68.192ZM217.704 60.272V68H218.856V64.192L223.032 68H224.68L220.024 63.76L224.104 60.272H222.536L218.856 63.456V60.272H217.704ZM230.696 68C232.344 68 233.272 67.2 233.272 65.92C233.272 64.88 232.776 64.224 231.8 63.936C232.44 63.632 232.76 63.072 232.76 62.24C232.76 61.072 231.912 60.272 230.424 60.272H226.36V68H230.696ZM227.512 64.512H230.456C231.496 64.512 232.104 64.976 232.104 65.76C232.104 66.544 231.496 66.992 230.456 66.992H227.512V64.512ZM227.512 61.28H230.104C231.064 61.28 231.624 61.664 231.624 62.416C231.624 63.136 231.064 63.552 230.104 63.552H227.512V61.28ZM238.202 67.152C237.002 67.152 236.09 66.608 236.09 65.568C236.09 64.608 236.97 64.016 238.378 64.016C239.258 64.016 240.106 64.272 240.89 64.784V65.856C240.33 66.56 239.306 67.152 238.202 67.152ZM237.882 68.192C239.178 68.192 240.218 67.744 241.002 66.832C241.13 67.664 241.706 68.064 242.458 68.064C242.81 68.064 243.066 68 243.226 67.888V66.992C243.098 67.056 242.954 67.088 242.778 67.088C242.33 67.088 242.042 66.72 242.042 66.128V62.944C242.042 61.072 240.65 60.08 238.586 60.08C237.482 60.08 236.57 60.32 235.818 60.784V61.904C236.602 61.376 237.434 61.12 238.346 61.12C240.042 61.12 240.89 61.76 240.89 63.056V63.824C240.042 63.328 239.114 63.072 238.106 63.072C237.194 63.072 236.442 63.296 235.834 63.76C235.242 64.224 234.938 64.848 234.938 65.632C234.938 66.432 235.226 67.056 235.786 67.52C236.362 67.968 237.066 68.192 237.882 68.192ZM249.83 64.192V63.12H245.334V64.192H249.83ZM258.302 68.192C259.646 68.192 260.766 67.856 261.678 67.2V65.968C260.75 66.72 259.646 67.088 258.35 67.088C257.054 67.088 255.95 66.64 255.07 65.76C254.19 64.88 253.758 63.76 253.758 62.4C253.758 61.056 254.19 59.936 255.07 59.056C255.95 58.16 257.022 57.712 258.318 57.712C259.422 57.712 260.462 58.032 261.438 58.656V57.44C260.558 56.88 259.517 56.608 258.302 56.608C256.654 56.608 255.294 57.152 254.19 58.256C253.102 59.344 252.558 60.72 252.558 62.4C252.558 64.08 253.102 65.472 254.19 66.56C255.294 67.648 256.654 68.192 258.302 68.192ZM264.916 68L269.86 61.984V68H271.012V60.272H269.94L264.996 66.304V60.272H263.844V68H264.916ZM276.743 68V61.28H279.543V60.272H272.791V61.28H275.591V68H276.743ZM282.385 68L287.329 61.984V68H288.481V60.272H287.409L282.465 66.304V60.272H281.313V68H282.385Z" fill="white"/>
<path d="M47 1.95455V86H51V0L47 1.95455Z" fill="url(#paint0_linear_1_494)"/>
<path d="M41 86H44V4L41 5.94723V86Z" fill="url(#paint1_linear_1_494)"/>
<path d="M36 86H39V8L36 9.93923V86Z" fill="url(#paint2_linear_1_494)"/>
<path d="M30 86H33V12H32.9L30 13.9304V86Z" fill="url(#paint3_linear_1_494)"/>
<path d="M24 86H27V15H26.9L24 16.9511V86Z" fill="url(#paint4_linear_1_494)"/>
<path d="M17 86H21V18L17 20.0772V86Z" fill="url(#paint5_linear_1_494)"/>
<path d="M12 86H15V22L12 24.068V86Z" fill="url(#paint6_linear_1_494)"/>
<path d="M6.00002 86H10V26L6.00002 28.0578V86Z" fill="url(#paint7_linear_1_494)"/>
<path d="M64.2063 28H71.0159C71.9444 28 72.7698 28.1075 73.4921 28.4301C74.2143 28.6452 74.7302 29.0753 75.246 29.5054C75.6587 29.9355 76.0714 30.4731 76.2778 31.1183C76.4841 31.7634 76.5873 32.4086 76.5873 33.1613C76.5873 34.0215 76.381 34.7742 75.9683 35.5269C75.5556 36.2796 74.9365 36.9247 73.9048 37.4624C74.5238 37.6774 75.0397 38 75.4524 38.4301C75.8651 38.8602 76.1746 39.2903 76.381 39.7204C76.5873 40.1505 76.7937 40.6882 76.8968 41.2258C77 41.7634 77 42.1935 77 42.5161C77 43.3763 76.8968 44.0215 76.5873 44.7742C76.2778 45.5269 75.8651 46.0645 75.4524 46.4946C74.9365 46.9247 74.4206 47.3548 73.6984 47.5699C73.0794 47.7849 72.3571 48 71.6349 48H64V28H64.2063ZM74.2143 33.2688C74.2143 32.3011 73.9048 31.4409 73.3889 30.7957C72.7698 30.1505 71.8413 29.828 70.5 29.828H66.4762V36.4946H70.5C71.7381 36.4946 72.6667 36.172 73.2857 35.6344C73.9048 35.0968 74.2143 34.3441 74.2143 33.2688ZM74.8333 42.3011C74.8333 41.871 74.7302 41.3333 74.627 40.9032C74.4206 40.4731 74.2143 40.043 73.9048 39.7204C73.5952 39.3978 73.1825 39.0753 72.6667 38.8602C72.1508 38.6452 71.6349 38.5376 71.0159 38.5376H66.5794V46.0645H71.0159C71.7381 46.0645 72.254 45.957 72.7698 45.7419C73.2857 45.5269 73.6984 45.3118 73.9048 44.8817C74.2143 44.5591 74.4206 44.129 74.5238 43.6989C74.7302 43.2688 74.8333 42.7312 74.8333 42.3011Z" fill="white"/>
<path d="M84 48H81V27H84V48Z" fill="white"/>
<path d="M91 29.5556C91 30 90.8966 30.3333 90.5862 30.6667C90.2759 31 89.9655 31.1111 89.4483 31.1111C89.0345 31.1111 88.7241 31 88.4138 30.6667C88.1034 30.3333 88 30 88 29.5556C88 29.1111 88.1034 28.6667 88.4138 28.4444C88.7241 28.1111 89.0345 28 89.4483 28C89.8621 28 90.2759 28.1111 90.5862 28.4444C90.8966 28.7778 91 29.1111 91 29.5556ZM88.3103 48V33.3333H90.5862V48H88.3103Z" fill="white"/>
<path d="M98.0909 30V33.6H102.182V35.3455H98.0909V43.8545C98.0909 44.5091 98.1932 45.0545 98.5 45.4909C98.7045 45.9273 99.2159 46.1455 100.034 46.1455C100.648 46.1455 101.466 45.9273 102.591 45.6L103 47.2364C102.489 47.4545 101.977 47.6727 101.364 47.7818C100.75 47.8909 100.239 48 99.625 48C97.1705 48 95.9432 46.8 95.9432 44.5091V35.2364H94V33.9273L96.0455 33.2727L96.7614 30.1091L98.0909 30Z" fill="white"/>
<path d="M108.314 46.303H117V48H105V46.5152L113.457 35.9091L113.343 35.697H105.914V34H116.657V35.4848L108.314 46.0909V46.303Z" fill="white"/>
<path d="M64 73.8925V54H75.5862V55.9355H66.2759V62.4946H74.1379V64.3226H66.2759V72.0645H76V74H64V73.8925Z" fill="white"/>
<path d="M80.8889 71.3235C81.7778 71.7353 82.6667 71.9412 83.4444 72.0441C84.2222 72.1471 84.8889 72.25 85.4444 72.25C85.8889 72.25 86.3333 72.25 86.7778 72.1471C87.2222 72.0441 87.5556 71.9412 87.8889 71.7353C88.2222 71.5294 88.4444 71.3235 88.5556 71.1176C88.7778 70.8088 88.7778 70.5 88.7778 70.0882C88.7778 69.7794 88.6667 69.4706 88.5556 69.1618C88.3333 68.9559 88.1111 68.6471 87.8889 68.5441C87.5556 68.3382 87.2222 68.2353 86.8889 68.1324C86.5556 68.0294 86.1111 67.8235 85.6667 67.7206C85 67.5147 84.4444 67.3088 83.7778 67.1029C83.2222 66.8971 82.6667 66.6912 82.2222 66.3824C81.7778 66.0735 81.4444 65.7647 81.1111 65.3529C80.7778 64.9412 80.6667 64.4265 80.6667 63.8088C80.6667 63.1912 80.7778 62.5735 81.1111 62.1618C81.4444 61.75 81.7778 61.2353 82.2222 60.9265C82.6667 60.6176 83.2222 60.4118 83.8889 60.2059C84.5556 60.1029 85.2222 60 86 60C86.3333 60 86.6667 60 87 60.1029C87.3333 60.1029 87.7778 60.2059 88.1111 60.3088C88.5556 60.4118 88.8889 60.5147 89.2222 60.6176C89.5556 60.7206 90 60.9265 90.2222 61.0294L89.4445 62.5735C88.6667 62.2647 88 62.0588 87.4444 61.9559C86.8889 61.8529 86.3333 61.8529 85.7778 61.8529C85.4444 61.8529 85 61.8529 84.6667 61.9559C84.3333 62.0588 84 62.1618 83.7778 62.2647C83.5556 62.4706 83.3333 62.6765 83.1111 62.8824C82.8889 63.1912 82.8889 63.5 82.8889 63.8088C82.8889 64.1176 83 64.3235 83.2222 64.5294C83.4444 64.7353 83.6667 64.9412 84 65.1471C84.3333 65.3529 84.6667 65.4559 85 65.5588C85.3333 65.6618 85.6667 65.7647 86 65.8676C86.6667 66.0735 87.2222 66.2794 87.7778 66.4853C88.3333 66.6912 88.8889 66.8971 89.4445 67.2059C89.8889 67.5147 90.3333 67.9265 90.5556 68.3382C90.8889 68.75 91 69.3676 91 70.0882C91 70.8088 90.8889 71.3235 90.5556 71.8382C90.2222 72.3529 89.8889 72.7647 89.3333 73.0735C88.7778 73.3824 88.2222 73.5882 87.5556 73.7941C86.8889 73.8971 86.1111 74 85.2222 74C84.7778 74 84.3333 74 83.8889 73.8971C83.4444 73.8971 83 73.7941 82.4444 73.6912C82 73.5882 81.5556 73.4853 81.1111 73.3824C80.6667 73.2794 80.3333 73.0735 80 72.9706L80.8889 71.3235Z" fill="white"/>
<path d="M97.1461 57V60.4H101.191V62.0485H97.1461V70.0848C97.1461 70.703 97.2472 71.2182 97.5506 71.6303C97.7528 72.0424 98.2584 72.2485 99.0674 72.2485C99.6742 72.2485 100.483 72.0424 101.596 71.7333L102 73.2788C101.494 73.4848 100.989 73.6909 100.382 73.7939C99.7753 73.897 99.2697 74 98.6629 74C96.236 74 95.0225 72.8667 95.0225 70.703V61.9455H93V60.7091L95.0225 60.0909L95.7303 57.103L97.1461 57Z" fill="white"/>
<path d="M114.889 72.0441H116.889L117 73.3824C116.667 73.5882 116.222 73.6912 115.778 73.7941C115.333 73.8971 114.889 73.8971 114.444 73.8971C113.889 73.8971 113.444 73.7941 113.111 73.5882C112.778 73.3824 112.667 72.8677 112.556 72.25C112 72.6618 111.444 73.0735 110.889 73.2794C110.333 73.4853 109.889 73.6912 109.444 73.7941C109 73.8971 108.667 74 108.222 74C107.889 74 107.556 74 107.333 74C106.444 74 105.778 73.8971 105.222 73.5882C104.667 73.2794 104.222 72.9706 103.889 72.6618C103.556 72.25 103.333 71.8382 103.222 71.4265C103.111 71.0147 103 70.6029 103 70.1912C103 68.9559 103.444 68.0294 104.333 67.3088C105.222 66.5882 106.667 66.1765 108.556 66.0735L112.333 65.8676V65.0441C112.333 63.9118 112.111 63.0882 111.667 62.6765C111.222 62.2647 110.444 61.9559 109.222 61.9559C108.556 61.9559 107.778 62.0588 107 62.1618C106.222 62.2647 105.444 62.4706 104.667 62.6765L104.333 61.1324C105.222 60.8235 106.111 60.5147 107.111 60.3088C108.111 60.1029 109.111 60 110 60C111.556 60 112.778 60.3088 113.667 61.0294C114.556 61.6471 115 62.8824 115 64.5294V72.0441H114.889ZM108.778 67.5147C107.778 67.5147 107 67.8235 106.556 68.2353C106.111 68.6471 105.889 69.2647 105.889 69.8824C105.889 70.7059 106.111 71.2206 106.556 71.6323C107 72.0441 107.667 72.25 108.667 72.25C109.333 72.25 110 72.1471 110.667 71.8382C111.333 71.5294 112 71.1176 112.667 70.5V67.3088L108.778 67.5147Z" fill="white"/>
<path d="M122.091 57V60.4H126.182V62.0485H122.091V70.0848C122.091 70.703 122.193 71.2182 122.5 71.6303C122.705 72.0424 123.216 72.2485 124.034 72.2485C124.648 72.2485 125.466 72.0424 126.591 71.7333L127 73.2788C126.489 73.4848 125.977 73.6909 125.364 73.7939C124.75 73.897 124.239 74 123.625 74C121.17 74 119.943 72.8667 119.943 70.703V61.9455H118V60.7091L120.045 60.0909L120.761 57.103L122.091 57Z" fill="white"/>
<path d="M135.27 60C136.243 60 137 60.1087 137.649 60.4348C138.297 60.6522 138.838 60.9783 139.27 61.413C139.703 61.8478 140.027 62.2826 140.243 62.8261C140.459 63.3696 140.676 63.8043 140.784 64.3478C140.892 64.8913 141 65.3261 141 65.7609C141 66.1957 141 66.6304 141 66.8478V68.0435H131.486C131.486 68.6957 131.595 69.3478 131.703 70C131.811 70.6522 132.027 71.087 132.351 71.6304C132.676 72.0652 133.108 72.5 133.649 72.7174C134.189 73.0435 134.838 73.1522 135.595 73.1522C136.459 73.1522 137.216 73.0435 137.865 72.9348C138.514 72.7174 139.27 72.5 140.135 72.1739L140.676 73.6957C139.811 74.1304 138.946 74.4565 138.081 74.6739C137.216 74.8913 136.351 75 135.378 75C134.081 75 133.108 74.7826 132.243 74.4565C131.378 74.0217 130.73 73.587 130.297 72.9348C129.865 72.2826 129.541 71.5217 129.324 70.6522C129.108 69.7826 129 68.8043 129 67.8261C129 67.3913 129 66.9565 129.108 66.413C129.216 65.8696 129.324 65.3261 129.432 64.7826C129.649 64.2391 129.865 63.6957 130.081 63.1522C130.405 62.6087 130.73 62.1739 131.27 61.7391C131.703 61.3044 132.243 60.9783 133 60.7609C133.649 60.2174 134.405 60 135.27 60ZM135.378 61.8478C134.73 61.8478 134.081 61.9565 133.649 62.2826C133.216 62.5 132.784 62.8261 132.459 63.2609C132.135 63.6957 131.919 64.2391 131.811 64.7826C131.703 65.3261 131.595 65.9783 131.486 66.5217H138.73C138.73 65.8696 138.622 65.2174 138.514 64.6739C138.405 64.1304 138.189 63.587 137.973 63.1522C137.757 62.7174 137.324 62.3913 136.892 62.1739C136.568 61.9565 136.027 61.8478 135.378 61.8478Z" fill="white"/>
<path d="M0 110H3V32.9723L0 31V110Z" fill="url(#paint8_linear_1_494)"/>
<path d="M6 35V110H10V36.9651L6 35Z" fill="url(#paint9_linear_1_494)"/>
<path d="M12 39V110H15V40.9571L12 39Z" fill="url(#paint10_linear_1_494)"/>
<path d="M17 42V110H21V43.9774L17 42Z" fill="url(#paint11_linear_1_494)"/>
<path d="M24 46V110H27V47.9692L24.1 46H24Z" fill="url(#paint12_linear_1_494)"/>
<path d="M30 110H33V51.9601L30 50V110Z" fill="url(#paint13_linear_1_494)"/>
<path d="M36 110H39V55.9497L36 54V110Z" fill="url(#paint14_linear_1_494)"/>
<path d="M41 58V110H44V59.9379L41 58Z" fill="url(#paint15_linear_1_494)"/>
<path d="M47 61V110H51V62.9644L47 61Z" fill="url(#paint16_linear_1_494)"/>
<defs>
<linearGradient id="paint0_linear_1_494" x1="49.0157" y1="46.3594" x2="49.0157" y2="-18.9178" gradientUnits="userSpaceOnUse">
<stop stop-color="white" stop-opacity="0"/>
<stop offset="0.1146" stop-color="#0670EB" stop-opacity="0.1146"/>
<stop offset="0.2866" stop-color="#0670EB" stop-opacity="0.2866"/>
<stop offset="0.4541" stop-color="#0670EB" stop-opacity="0.4541"/>
<stop offset="0.613" stop-color="#0670EB" stop-opacity="0.613"/>
<stop offset="0.7611" stop-color="#0670EB" stop-opacity="0.7611"/>
<stop offset="0.8943" stop-color="#0670EB" stop-opacity="0.8943"/>
<stop offset="1" stop-color="#0670EB"/>
</linearGradient>
<linearGradient id="paint1_linear_1_494" x1="42.5118" y1="48.2031" x2="42.5118" y2="-14.0379" gradientUnits="userSpaceOnUse">
<stop stop-color="white" stop-opacity="0"/>
<stop offset="0.1146" stop-color="#0670EB" stop-opacity="0.1146"/>
<stop offset="0.2866" stop-color="#0670EB" stop-opacity="0.2866"/>
<stop offset="0.4541" stop-color="#0670EB" stop-opacity="0.4541"/>
<stop offset="0.613" stop-color="#0670EB" stop-opacity="0.613"/>
<stop offset="0.7611" stop-color="#0670EB" stop-opacity="0.7611"/>
<stop offset="0.8943" stop-color="#0670EB" stop-opacity="0.8943"/>
<stop offset="1" stop-color="#0670EB"/>
</linearGradient>
<linearGradient id="paint2_linear_1_494" x1="37.5118" y1="50.0469" x2="37.5118" y2="-9.15803" gradientUnits="userSpaceOnUse">
<stop stop-color="white" stop-opacity="0"/>
<stop offset="0.1146" stop-color="#0670EB" stop-opacity="0.1146"/>
<stop offset="0.2866" stop-color="#0670EB" stop-opacity="0.2866"/>
<stop offset="0.4541" stop-color="#0670EB" stop-opacity="0.4541"/>
<stop offset="0.613" stop-color="#0670EB" stop-opacity="0.613"/>
<stop offset="0.7611" stop-color="#0670EB" stop-opacity="0.7611"/>
<stop offset="0.8943" stop-color="#0670EB" stop-opacity="0.8943"/>
<stop offset="1" stop-color="#0670EB"/>
</linearGradient>
<linearGradient id="paint3_linear_1_494" x1="31.5118" y1="51.8906" x2="31.5118" y2="-4.27813" gradientUnits="userSpaceOnUse">
<stop stop-color="white" stop-opacity="0"/>
<stop offset="0.1146" stop-color="#0670EB" stop-opacity="0.1146"/>
<stop offset="0.2866" stop-color="#0670EB" stop-opacity="0.2866"/>
<stop offset="0.4541" stop-color="#0670EB" stop-opacity="0.4541"/>
<stop offset="0.613" stop-color="#0670EB" stop-opacity="0.613"/>
<stop offset="0.7611" stop-color="#0670EB" stop-opacity="0.7611"/>
<stop offset="0.8943" stop-color="#0670EB" stop-opacity="0.8943"/>
<stop offset="1" stop-color="#0670EB"/>
</linearGradient>
<linearGradient id="paint4_linear_1_494" x1="25.5118" y1="53.2734" x2="25.5118" y2="-0.618206" gradientUnits="userSpaceOnUse">
<stop stop-color="white" stop-opacity="0"/>
<stop offset="0.1146" stop-color="#0670EB" stop-opacity="0.1146"/>
<stop offset="0.2866" stop-color="#0670EB" stop-opacity="0.2866"/>
<stop offset="0.4541" stop-color="#0670EB" stop-opacity="0.4541"/>
<stop offset="0.613" stop-color="#0670EB" stop-opacity="0.613"/>
<stop offset="0.7611" stop-color="#0670EB" stop-opacity="0.7611"/>
<stop offset="0.8943" stop-color="#0670EB" stop-opacity="0.8943"/>
<stop offset="1" stop-color="#0670EB"/>
</linearGradient>
<linearGradient id="paint5_linear_1_494" x1="19.0157" y1="54.6563" x2="19.0157" y2="3.04172" gradientUnits="userSpaceOnUse">
<stop stop-color="white" stop-opacity="0"/>
<stop offset="0.1146" stop-color="#0670EB" stop-opacity="0.1146"/>
<stop offset="0.2866" stop-color="#0670EB" stop-opacity="0.2866"/>
<stop offset="0.4541" stop-color="#0670EB" stop-opacity="0.4541"/>
<stop offset="0.613" stop-color="#0670EB" stop-opacity="0.613"/>
<stop offset="0.7611" stop-color="#0670EB" stop-opacity="0.7611"/>
<stop offset="0.8943" stop-color="#0670EB" stop-opacity="0.8943"/>
<stop offset="1" stop-color="#0670EB"/>
</linearGradient>
<linearGradient id="paint6_linear_1_494" x1="13.5118" y1="56.5" x2="13.5118" y2="7.92162" gradientUnits="userSpaceOnUse">
<stop stop-color="white" stop-opacity="0"/>
<stop offset="0.1146" stop-color="#0670EB" stop-opacity="0.1146"/>
<stop offset="0.2866" stop-color="#0670EB" stop-opacity="0.2866"/>
<stop offset="0.4541" stop-color="#0670EB" stop-opacity="0.4541"/>
<stop offset="0.613" stop-color="#0670EB" stop-opacity="0.613"/>
<stop offset="0.7611" stop-color="#0670EB" stop-opacity="0.7611"/>
<stop offset="0.8943" stop-color="#0670EB" stop-opacity="0.8943"/>
<stop offset="1" stop-color="#0670EB"/>
</linearGradient>
<linearGradient id="paint7_linear_1_494" x1="8.01574" y1="58.3438" x2="8.01574" y2="12.8015" gradientUnits="userSpaceOnUse">
<stop stop-color="white" stop-opacity="0"/>
<stop offset="0.1146" stop-color="#0670EB" stop-opacity="0.1146"/>
<stop offset="0.2866" stop-color="#0670EB" stop-opacity="0.2866"/>
<stop offset="0.4541" stop-color="#0670EB" stop-opacity="0.4541"/>
<stop offset="0.613" stop-color="#0670EB" stop-opacity="0.613"/>
<stop offset="0.7611" stop-color="#0670EB" stop-opacity="0.7611"/>
<stop offset="0.8943" stop-color="#0670EB" stop-opacity="0.8943"/>
<stop offset="1" stop-color="#0670EB"/>
</linearGradient>
<linearGradient id="paint8_linear_1_494" x1="1.4776" y1="103.399" x2="1.4776" y2="34.8479" gradientUnits="userSpaceOnUse">
<stop stop-color="white" stop-opacity="0"/>
<stop offset="0.2918" stop-color="white" stop-opacity="0.2918"/>
<stop offset="0.6317" stop-color="white" stop-opacity="0.6317"/>
<stop offset="0.8767" stop-color="white" stop-opacity="0.8767"/>
<stop offset="1" stop-color="white"/>
</linearGradient>
<linearGradient id="paint9_linear_1_494" x1="7.97013" y1="103.733" x2="7.97013" y2="38.6531" gradientUnits="userSpaceOnUse">
<stop stop-color="white" stop-opacity="0"/>
<stop offset="0.2918" stop-color="white" stop-opacity="0.2918"/>
<stop offset="0.6317" stop-color="white" stop-opacity="0.6317"/>
<stop offset="0.8767" stop-color="white" stop-opacity="0.8767"/>
<stop offset="1" stop-color="white"/>
</linearGradient>
<linearGradient id="paint10_linear_1_494" x1="13.4776" y1="104.067" x2="13.4776" y2="42.4582" gradientUnits="userSpaceOnUse">
<stop stop-color="white" stop-opacity="0"/>
<stop offset="0.2918" stop-color="white" stop-opacity="0.2918"/>
<stop offset="0.6317" stop-color="white" stop-opacity="0.6317"/>
<stop offset="0.8767" stop-color="white" stop-opacity="0.8767"/>
<stop offset="1" stop-color="white"/>
</linearGradient>
<linearGradient id="paint11_linear_1_494" x1="18.9701" y1="104.318" x2="18.9701" y2="45.3121" gradientUnits="userSpaceOnUse">
<stop stop-color="white" stop-opacity="0"/>
<stop offset="0.2918" stop-color="white" stop-opacity="0.2918"/>
<stop offset="0.6317" stop-color="white" stop-opacity="0.6317"/>
<stop offset="0.8767" stop-color="white" stop-opacity="0.8767"/>
<stop offset="1" stop-color="white"/>
</linearGradient>
<linearGradient id="paint12_linear_1_494" x1="25.4776" y1="104.652" x2="25.4776" y2="49.1173" gradientUnits="userSpaceOnUse">
<stop stop-color="white" stop-opacity="0"/>
<stop offset="0.2918" stop-color="white" stop-opacity="0.2918"/>
<stop offset="0.6317" stop-color="white" stop-opacity="0.6317"/>
<stop offset="0.8767" stop-color="white" stop-opacity="0.8767"/>
<stop offset="1" stop-color="white"/>
</linearGradient>
<linearGradient id="paint13_linear_1_494" x1="31.4776" y1="104.986" x2="31.4776" y2="52.9224" gradientUnits="userSpaceOnUse">
<stop stop-color="white" stop-opacity="0"/>
<stop offset="0.2918" stop-color="white" stop-opacity="0.2918"/>
<stop offset="0.6317" stop-color="white" stop-opacity="0.6317"/>
<stop offset="0.8767" stop-color="white" stop-opacity="0.8767"/>
<stop offset="1" stop-color="white"/>
</linearGradient>
<linearGradient id="paint14_linear_1_494" x1="37.4776" y1="105.32" x2="37.4776" y2="56.7276" gradientUnits="userSpaceOnUse">
<stop stop-color="white" stop-opacity="0"/>
<stop offset="0.2918" stop-color="white" stop-opacity="0.2918"/>
<stop offset="0.6317" stop-color="white" stop-opacity="0.6317"/>
<stop offset="0.8767" stop-color="white" stop-opacity="0.8767"/>
<stop offset="1" stop-color="white"/>
</linearGradient>
<linearGradient id="paint15_linear_1_494" x1="42.4776" y1="105.655" x2="42.4776" y2="60.5328" gradientUnits="userSpaceOnUse">
<stop stop-color="white" stop-opacity="0"/>
<stop offset="0.2918" stop-color="white" stop-opacity="0.2918"/>
<stop offset="0.6317" stop-color="white" stop-opacity="0.6317"/>
<stop offset="0.8767" stop-color="white" stop-opacity="0.8767"/>
<stop offset="1" stop-color="white"/>
</linearGradient>
<linearGradient id="paint16_linear_1_494" x1="48.9701" y1="105.905" x2="48.9701" y2="63.3867" gradientUnits="userSpaceOnUse">
<stop stop-color="white" stop-opacity="0"/>
<stop offset="0.2918" stop-color="white" stop-opacity="0.2918"/>
<stop offset="0.6317" stop-color="white" stop-opacity="0.6317"/>
<stop offset="0.8767" stop-color="white" stop-opacity="0.8767"/>
<stop offset="1" stop-color="white"/>
</linearGradient>
</defs>
</svg>
